<svg xmlns="http://www.w3.org/2000/svg" width="115" height="85" fill="none"><path stroke="#05C2DF" stroke-linejoin="round" stroke-width="1.007" d="M50.405 18.644a22.6 22.6 0 0 1 4.32 13.336c0 12.542-10.204 22.745-22.745 22.745S9.235 44.522 9.235 31.98c0-12.541 10.203-22.745 22.745-22.745a22.58 22.58 0 0 1 13.317 4.307"/><path stroke="#05C2DF" stroke-width="1.007" d="M31.98 41.091c-5.022 0-9.11-4.087-9.11-9.11s4.088-9.11 9.11-9.11c5.024 0 9.111 4.087 9.111 9.11s-4.087 9.11-9.11 9.11ZM112.762 1c-9.504 0-17.237 7.732-17.237 17.236v8.982a14.77 14.77 0 0 0-6.108 3.59"/><path stroke="#05C2DF" stroke-width="1.007" d="M49.48 57.532a31.2 31.2 0 0 0 10.452-12.198M94.296 54a23.7 23.7 0 0 0-5.672-3.837l-.345-.167m-2.761-12.682a14.8 14.8 0 0 0-.585 4.11v6.958l-1.767-.853a56.3 56.3 0 0 0-21.88-5.497 30.9 30.9 0 0 0 1.675-10.05C62.96 14.899 49.063 1 31.98 1S1 14.899 1 31.981s13.898 30.98 30.98 30.98c5.23 0 10.16-1.304 14.486-3.601 1.61 1.396 28.217 24.27 42.133 24.27q.256 0 .506-.01c13.926-.581 24.454-12 24.895-12.486"/></svg>