<svg xmlns="http://www.w3.org/2000/svg" width="245" height="77" fill="none"><g filter="url('#filter0_d_3_3')"><path stroke="#05C2DF" stroke-miterlimit="1.517" stroke-width="2" d="M55 7c-4.88-3.411-10.086-4.648-16-5S27.56 3.003 22.321 5.812a32.7 32.7 0 0 0-12.676 12.18A33.4 33.4 0 0 0 5 35.08a33.4 33.4 0 0 0 4.727 17.066A32.7 32.7 0 0 0 22.46 64.263a32.03 32.03 0 0 0 17.066 3.67C45.44 67.554 51.136 65.436 56 62" opacity=".45"/><path stroke="#05C2DF" stroke-miterlimit="10" d="M38.03 61.155c14.588 0 26.413-11.79 26.413-26.335 0-14.544-11.825-26.335-26.412-26.335S11.618 20.275 11.618 34.82s11.826 26.335 26.413 26.335Z"/><path fill="#05C2DF" d="M90 12H60v2h30zM90 56H60v2h30z" opacity=".45"/><path fill="#fff" d="M49 35 31.75 45.392V24.608z"/><path fill="#05C2DF" d="M86.225 12h-1.96v2h1.96zM83.286 12h-1.96v2h1.96zM89.163 12h-1.959v2h1.96zM92.102 12h-1.96v2h1.96zM95.04 12h-1.958v2h1.959zM98.96 12H97v2h1.96zM102.878 12h-1.96v2h1.96zM106.796 12h-1.959v2h1.959zM111.694 12h-1.959v2h1.959zM116.592 12h-1.959v2h1.959zM121.49 12h-1.959v2h1.959zM126.388 12h-1.959v2h1.959zM131.286 12h-1.959v2h1.959zM136.184 12h-1.96v2h1.96zM147.547 12.23h-1.567v1.6h1.567zM153.424 12.23h-1.567v1.6h1.567zM159.302 12.23h-1.567v1.6h1.567zM164.886 12.43h-1.274v1.3h1.274zM171.743 12.43h-1.274v1.3h1.274zM178.6 12.43h-1.273v1.3h1.273zM185.457 12.43h-1.273v1.3h1.273zM193.294 12.43h-1.274v1.3h1.274zM202.11 12.43h-1.273v1.3h1.273zM141.669 12.23h-1.567v1.6h1.567zM240.02 12.5h-.979v1h.979zM226.306 12.5h-.979v1h.979zM213.571 12.5h-.979v1h.979zM86.225 56h-1.96v2h1.96zM83.286 56h-1.96v2h1.96zM89.163 56h-1.959v2h1.96zM92.102 56h-1.96v2h1.96zM95.04 56h-1.958v2h1.959zM98.96 56H97v2h1.96zM102.878 56h-1.96v2h1.96zM106.796 56h-1.959v2h1.959zM111.694 56h-1.959v2h1.959zM116.592 56h-1.959v2h1.959zM121.49 56h-1.959v2h1.959zM126.388 56h-1.959v2h1.959zM131.286 56h-1.959v2h1.959zM136.184 56h-1.96v2h1.96zM147.547 56.23h-1.567v1.6h1.567zM153.424 56.23h-1.567v1.6h1.567zM159.302 56.23h-1.567v1.6h1.567zM164.886 56.43h-1.274v1.3h1.274zM171.743 56.43h-1.274v1.3h1.274zM178.6 56.43h-1.273v1.3h1.273zM185.457 56.43h-1.273v1.3h1.273zM193.294 56.43h-1.274v1.3h1.274zM202.11 56.43h-1.273v1.3h1.273zM141.669 56.23h-1.567v1.6h1.567zM240.02 56.5h-.979v1h.979zM226.306 56.5h-.979v1h.979zM213.571 56.5h-.979v1h.979z" opacity=".45"/></g><defs><filter id="filter0_d_3_3" width="244.02" height="76.055" x="0" y=".945" color-interpolation-filters="sRGB" filterUnits="userSpaceOnUse"><feFlood flood-opacity="0" result="BackgroundImageFix"/><feColorMatrix in="SourceAlpha" result="hardAlpha" values="0 0 0 0 0 0 0 0 0 0 0 0 0 0 0 0 0 0 127 0"/><feOffset dy="4"/><feGaussianBlur stdDeviation="2"/><feComposite in2="hardAlpha" operator="out"/><feColorMatrix values="0 0 0 0 0 0 0 0 0 0 0 0 0 0 0 0 0 0 0.25 0"/><feBlend in2="BackgroundImageFix" result="effect1_dropShadow_3_3"/><feBlend in="SourceGraphic" in2="effect1_dropShadow_3_3" result="shape"/></filter></defs></svg>