<svg width="115" height="85" viewBox="0 0 115 85" fill="none" xmlns="http://www.w3.org/2000/svg">
<path d="M49.4796 57.532C53.9453 54.4637 57.5707 50.2578 59.9322 45.3339M94.2965 54.0003C92.6005 52.4518 90.6923 51.1606 88.6241 50.1626L88.2789 49.996M85.5179 37.3144C85.1301 38.6572 84.9334 40.0394 84.9334 41.4231V48.3817L83.1661 47.5288C76.3596 44.2442 68.8427 42.3645 61.2862 42.0322C62.3706 38.8789 62.9607 35.498 62.9607 31.9815C62.9607 14.8988 49.0629 1.00098 31.9805 1.00098C14.898 1.00098 1 14.8988 1 31.9815C1 49.0641 14.8978 62.9619 31.9805 62.9619C37.2101 62.9619 42.1402 61.6574 46.4657 59.3597C48.0762 60.7559 74.6828 83.6307 88.5991 83.6307C88.7693 83.6307 88.9388 83.6272 89.1052 83.6203C103.031 83.039 113.559 71.6198 114 71.134" stroke="#05C2DF" stroke-width="1.00668"/>
</svg>
